<?xml version="1.0" encoding="UTF-8"?>
<svg xmlns="http://www.w3.org/2000/svg" version="1.1" viewBox="0 0 607 532">
  <defs>
    <style>
      .cls-1 {
        fill: #f5f7ec;
      }

      .cls-2 {
        fill: #b89e7f;
      }

      .cls-3 {
        fill: #c7b299;
      }
    </style>
  </defs>
  <!-- Generator: Adobe Illustrator 28.7.1, SVG Export Plug-In . SVG Version: 1.2.0 Build 142)  -->
  <g>
    <g id="Layer_1">
      <g>
        <polygon class="cls-1" points="313.33 174.62 287.83 134.15 239.86 136.43 313.33 174.62"/>
        <path class="cls-1" d="M197.62,412.79c-17.17.93-34.17-2.73-49.6-10.76-47.22-24.55-65.66-82.94-41.11-130.16,24.55-47.22,82.94-65.66,130.16-41.11,47.22,24.55,65.66,82.94,41.12,130.16-6.84,13.15-16.63,24.56-28.5,33.27.65,7.61,2.36,15.1,5.1,22.2,17.91-11.12,32.44-26.77,42.26-45.67,29.96-57.62,7.45-128.87-50.17-158.82-57.62-29.96-128.87-7.45-158.83,50.17-29.96,57.62-7.45,128.87,50.17,158.83,20.32,10.56,42.69,14.9,65.2,12.76-2.48-6.79-4.42-13.77-5.79-20.87Z"/>
        <path class="cls-2" d="M391.32,268.45c-24.81-12.9-52.25-17.63-79.71-13.91-8.74-16.89-21.11-32.04-36.7-44.14l62.38-6.28c3.82-.38,6.87-3.36,7.34-7.18l5.5-44.38c.42-3.41-1.32-6.73-4.37-8.31l-99.8-51.88c-3.05-1.59-6.77-1.11-9.32,1.2l-33.17,29.99c-2.85,2.58-3.54,6.78-1.66,10.13l30.62,54.53c-60.85-18.98-128.6,7.77-159.01,66.26-34.14,65.67-8.49,146.88,57.18,181.02,24.78,12.88,52.26,17.66,79.73,13.94,12.28,23.7,31.69,43.99,57.13,57.21,65.67,34.14,146.88,8.49,181.02-57.18,34.14-65.67,8.49-146.88-57.18-181.02ZM88.04,262.07c29.96-57.62,101.2-80.13,158.83-50.17,57.62,29.96,80.13,101.2,50.17,158.82-9.82,18.89-24.35,34.55-42.26,45.67-2.74-7.1-4.45-14.58-5.1-22.2,11.86-8.71,21.66-20.12,28.5-33.27,24.55-47.22,6.1-105.61-41.12-130.16-47.22-24.55-105.61-6.11-130.16,41.11-24.55,47.22-6.11,105.61,41.11,130.16,15.43,8.02,32.44,11.69,49.6,10.76,1.37,7.11,3.31,14.08,5.79,20.87-22.51,2.14-44.88-2.2-65.2-12.76-57.62-29.96-80.13-101.21-50.17-158.83ZM155.61,387.43c-39.17-20.36-54.46-68.8-34.1-107.96,20.36-39.17,68.79-54.46,107.96-34.1,12.73,6.62,22.92,16.21,30.2,27.48-20.97,12.71-37.94,30.8-49.37,52.78-11.75,22.6-16.42,47.04-14.81,70.78-13.8.53-27.45-2.51-39.88-8.97ZM270.88,332.93c-1.46,6.94-3.87,13.8-7.3,20.4-3.36,6.45-7.58,12.39-12.5,17.67,1.46-6.93,3.87-13.78,7.3-20.37s7.58-12.41,12.51-17.69ZM326.45,307.55c13.81-.53,27.46,2.51,39.88,8.97,39.17,20.36,54.47,68.79,34.1,107.96-20.36,39.17-68.8,54.47-107.96,34.1-12.73-6.62-22.92-16.22-30.2-27.48,20.97-12.72,37.96-30.83,49.38-52.78,11.75-22.6,16.41-47.04,14.8-70.77ZM313.33,174.62l-73.46-38.19,47.96-2.28,25.5,40.48ZM333.1,156.22l-1.96,15.81-15.76-25.02,17.72,9.21ZM243.45,109.61l17.92,9.32-29.79,1.42,11.87-10.74ZM229.69,149.69l78.51,40.81-52.61,5.29-25.89-46.11ZM275.07,492.05c-57.62-29.96-80.13-101.21-50.17-158.83,9.84-18.92,24.35-34.55,42.27-45.66,2.74,7.1,4.44,14.58,5.09,22.19-11.86,8.71-21.66,20.12-28.5,33.27-24.55,47.22-6.11,105.61,41.11,130.16,47.22,24.55,105.61,6.1,130.16-41.12,24.55-47.22,6.1-105.61-41.12-130.16-15.43-8.02-32.44-11.69-49.61-10.76-1.37-7.1-3.31-14.08-5.79-20.86,22.5-2.14,44.85,2.18,65.2,12.75,57.62,29.96,80.13,101.2,50.17,158.82-29.96,57.62-101.21,80.13-158.83,50.17Z"/>
        <path class="cls-3" d="M319.79,72.3c4.03,2.1,9,.53,11.1-3.51l17.36-33.38c2.1-4.03.53-9-3.51-11.1s-9-.53-11.1,3.51l-17.36,33.38c-2.1,4.03-.53,9,3.51,11.1Z"/>
        <path class="cls-3" d="M222.86,60.65c.68,2.17,2.18,3.85,4.05,4.82s4.11,1.23,6.27.54c4.33-1.37,6.74-5.99,5.37-10.32l-11.33-35.88c-1.37-4.33-5.99-6.74-10.33-5.37-4.33,1.37-6.74,5.99-5.37,10.32l11.33,35.88Z"/>
        <path class="cls-3" d="M378.73,144.41c1.87.97,4.11,1.23,6.28.55l35.88-11.33c4.33-1.37,6.74-5.99,5.37-10.33-1.37-4.33-5.99-6.74-10.33-5.37l-35.88,11.33c-4.33,1.37-6.74,5.99-5.37,10.33.68,2.17,2.18,3.85,4.05,4.82Z"/>
      </g>
    </g>
  </g>
</svg>