<?xml version="1.0" encoding="UTF-8"?>
<svg xmlns="http://www.w3.org/2000/svg" version="1.1" viewBox="0 0 607 532">
  <defs>
    <style>
      .cls-1, .cls-2 {
        fill: #8d704f;
      }

      .cls-3 {
        stroke: #b89e7f;
        stroke-width: 7.51px;
      }

      .cls-3, .cls-4 {
        fill: none;
        stroke-miterlimit: 10;
      }

      .cls-4 {
        stroke: #f5f7ec;
        stroke-width: 3.76px;
      }

      .cls-5 {
        opacity: .1;
      }

      .cls-6 {
        fill: #ecdac4;
      }

      .cls-2 {
        font-family: MolgakClassy-Regular, 'Molgak Classy';
        font-size: 164.74px;
      }
    </style>
  </defs>
  <!-- Generator: Adobe Illustrator 28.7.1, SVG Export Plug-In . SVG Version: 1.2.0 Build 142)  -->
  <g>
    <g id="Layer_1">
      <g>
        <g>
          <g>
            <path class="cls-5" d="M252.5,479.55l77.29,33.18c6.17,2.65,13.28,1.8,18.65-2.21l67.38-50.35c2.64-1.97,5.76-3.22,9.03-3.61l72.05-8.55c10.3-1.22,17.66-10.56,16.44-20.87l-3.07-25.83c-.79-6.66,2.03-13.24,7.41-17.26,5.38-4.02,8.2-10.6,7.41-17.26l-24.9-209.8c-.79-6.66-5.08-12.4-11.24-15.05-6.17-2.65-10.45-8.38-11.24-15.05l-3.07-25.83c-1.22-10.3-10.56-17.66-20.87-16.44l-72.05,8.55c-3.27.39-6.59-.09-9.62-1.39l-77.29-33.18c-6.17-2.65-13.28-1.8-18.65,2.21l-67.38,50.35c-2.64,1.97-5.76,3.22-9.03,3.61l-72.05,8.55c-10.3,1.22-17.66,10.56-16.44,20.87l3.07,25.83c.79,6.66-2.03,13.24-7.41,17.26h0c-5.38,4.02-8.2,10.6-7.41,17.26l24.9,209.8c.79,6.66,5.08,12.4,11.24,15.05,6.17,2.65,10.45,8.38,11.24,15.05l3.07,25.83c1.22,10.3,10.56,17.66,20.87,16.44l72.05-8.55c3.27-.39,6.59.09,9.62,1.39Z"/>
            <path class="cls-5" d="M244.45,491.41c.95-.11,1.91.03,2.79.4l77.29,33.18c5.17,2.22,10.87,3.05,16.46,2.38s10.94-2.8,15.44-6.17l67.38-50.35c.76-.57,1.67-.93,2.61-1.04l72.05-8.55c17.59-2.09,30.21-18.1,28.12-35.69l-3.07-25.83c-.23-1.92.59-3.84,2.15-5,9.17-6.85,14.02-18.16,12.67-29.53l-24.9-209.8c-1.35-11.36-8.72-21.23-19.23-25.74-1.78-.76-3.03-2.43-3.26-4.36l-3.07-25.83c-2.09-17.59-18.1-30.21-35.69-28.12l-72.05,8.55c-.94.11-1.91-.03-2.78-.4l-77.3-33.18c-10.35-4.45-22.89-2.96-31.9,3.78l-67.38,50.35c-.77.57-1.67.93-2.62,1.05l-72.05,8.55c-17.6,2.09-30.21,18.1-28.12,35.69l3.07,25.83c.23,1.92-.59,3.84-2.14,5-9.17,6.85-14.02,18.16-12.67,29.53l24.9,209.8c1.35,11.36,8.72,21.23,19.23,25.74,1.78.77,3.02,2.43,3.25,4.36l3.07,25.83c2.09,17.59,18.1,30.21,35.7,28.12l72.05-8.55ZM143.54,471.03l-3.07-25.83c-.52-4.36-3.34-8.14-7.37-9.87-8.26-3.54-14.05-11.29-15.11-20.22l-24.9-209.8c-1.06-8.93,2.75-17.82,9.96-23.2,3.51-2.63,5.38-6.97,4.86-11.33l-3.07-25.83c-1.64-13.82,8.27-26.4,22.1-28.04l72.05-8.55c2.15-.25,4.19-1.07,5.93-2.37l67.38-50.35c7.08-5.29,16.93-6.47,25.07-2.97l77.3,33.18c1.99.85,4.17,1.17,6.31.91l72.05-8.55c13.82-1.64,26.4,8.27,28.04,22.09l3.07,25.83c.52,4.36,3.35,8.14,7.38,9.87,8.26,3.55,14.05,11.29,15.11,20.22l24.9,209.8c1.06,8.93-2.75,17.82-9.95,23.2-3.52,2.63-5.38,6.97-4.86,11.33l3.07,25.83c1.64,13.82-8.27,26.4-22.09,28.04l-72.05,8.55c-2.14.25-4.19,1.07-5.92,2.36l-67.38,50.35c-7.08,5.3-16.93,6.47-25.07,2.97l-77.29-33.18c-1.98-.85-4.17-1.17-6.31-.91l-72.05,8.55c-13.82,1.64-26.41-8.27-28.05-22.09Z"/>
          </g>
          <g>
            <path class="cls-6" d="M487.35,122.33h0c-6.17-2.65-10.45-8.38-11.24-15.05l-3.07-25.83c-1.22-10.3-10.56-17.66-20.87-16.44l-72.05,8.55c-3.27.39-6.59-.09-9.62-1.39l-77.29-33.18c-6.17-2.65-13.28-1.8-18.65,2.21l-67.38,50.35c-2.64,1.97-5.76,3.22-9.03,3.61l-72.05,8.55c-10.3,1.22-17.66,10.56-16.44,20.87l3.07,25.83c.79,6.66-2.03,13.24-7.41,17.26h0c-5.38,4.02-8.2,10.6-7.41,17.26l24.9,209.8c.79,6.66,5.08,12.4,11.24,15.05h0c6.17,2.65,10.45,8.38,11.24,15.05l3.07,25.83c1.22,10.3,10.56,17.66,20.87,16.44l72.05-8.55c3.27-.39,6.59.09,9.62,1.39l77.29,33.18c6.17,2.65,13.28,1.8,18.65-2.21l67.38-50.35c2.64-1.97,5.76-3.22,9.03-3.61l72.05-8.55c10.3-1.22,17.66-10.56,16.44-20.87l-3.07-25.83c-.79-6.66,2.03-13.24,7.41-17.26h0c5.38-4.02,8.2-10.6,7.41-17.26l-24.9-209.8c-.79-6.66-5.08-12.4-11.24-15.05Z"/>
            <path class="cls-3" d="M338.98,504.34c-4.99.59-10.08-.14-14.7-2.13l-77.29-33.18c-1.43-.61-3.01-.84-4.55-.66l-72.05,8.55c-15.71,1.86-30.01-9.4-31.87-25.11l-3.07-25.83c-.37-3.14-2.41-5.87-5.31-7.11-9.39-4.03-15.97-12.84-17.17-22.98l-24.9-209.8c-1.2-10.14,3.13-20.24,11.32-26.36,2.53-1.89,3.87-5.02,3.5-8.16l-3.07-25.83c-1.86-15.71,9.4-30,25.11-31.87l72.05-8.55c1.55-.18,3.02-.77,4.27-1.7l67.38-50.35c4.03-3.01,8.8-4.91,13.79-5.51s10.08.14,14.69,2.13l77.29,33.18c1.43.61,3,.84,4.55.66l72.05-8.55c15.71-1.86,30,9.4,31.87,25.11l3.07,25.83c.37,3.14,2.41,5.87,5.32,7.11,9.39,4.03,15.97,12.83,17.17,22.98l24.9,209.8c1.2,10.15-3.13,20.25-11.31,26.36-2.53,1.89-3.88,5.02-3.5,8.16l3.07,25.83c1.86,15.71-9.4,30-25.11,31.87l-72.05,8.55c-1.55.18-3.02.77-4.27,1.7l-67.38,50.35c-4.03,3.01-8.79,4.91-13.79,5.51Z"/>
            <path class="cls-4" d="M336.64,484.68c-1.55.18-3.12-.04-4.55-.66l-77.29-33.18c-4.61-1.98-9.7-2.72-14.7-2.13l-72.05,8.55c-4.87.58-9.29-2.91-9.87-7.77l-3.07-25.83c-1.2-10.14-7.78-18.95-17.16-22.98-2.91-1.25-4.95-3.98-5.32-7.12l-24.9-209.8c-.37-3.14.97-6.27,3.5-8.16,8.18-6.12,12.52-16.22,11.31-26.36l-3.07-25.83c-.58-4.86,2.91-9.29,7.78-9.87l72.05-8.55c5-.59,9.77-2.5,13.8-5.51l67.37-50.35c1.25-.93,2.72-1.52,4.27-1.7s3.12.04,4.55.66l77.3,33.18c4.61,1.98,9.7,2.72,14.69,2.13l72.05-8.55c4.86-.58,9.29,2.91,9.87,7.77l3.07,25.83c1.2,10.15,7.79,18.95,17.18,22.98,2.9,1.24,4.94,3.97,5.31,7.11l24.9,209.8c.37,3.14-.97,6.27-3.5,8.16-8.18,6.11-12.52,16.21-11.32,26.36l3.07,25.83c.58,4.86-2.91,9.29-7.77,9.87l-72.05,8.55c-5,.59-9.77,2.5-13.79,5.51l-67.38,50.34c-1.25.93-2.72,1.52-4.27,1.71Z"/>
          </g>
        </g>
        <g>
          <text class="cls-2" transform="translate(182.04 329.6) rotate(-6.77)"><tspan x="0" y="0">E</tspan></text>
          <text class="cls-2" transform="translate(335.94 382.46) rotate(-6.77)"><tspan x="0" y="0">G</tspan></text>
          <path class="cls-1" d="M290.14,256.63c-1.77.21-3.46.77-5.05,1.66-1.59.9-3,2.03-4.22,3.39-1.22,1.37-2.13,2.9-2.73,4.61-.6,1.71-.79,3.48-.57,5.32.29,2.47,1.2,4.56,2.72,6.27,1.52,1.71,3.43,2.96,5.74,3.75s4.76,1.02,7.35.72c2.41-.29,4.48-.9,6.23-1.85,1.75-.94,3.22-2.11,4.4-3.51,1.18-1.39,2-2.85,2.46-4.38l6.49,4.43c-1.34,3.3-3.67,6.26-6.99,8.87-3.32,2.61-7.57,4.22-12.76,4.84-4.31.51-8.29.08-11.95-1.28-3.66-1.36-6.67-3.46-9.03-6.29-2.36-2.83-3.76-6.15-4.21-9.95-.36-3.04,0-5.89,1.06-8.55,1.06-2.66,2.59-5.06,4.59-7.19,1.99-2.13,4.32-3.91,6.97-5.35,2.65-1.44,5.47-2.33,8.44-2.69l1.05,7.19ZM328.9,285.54c-.57.07-1.44.17-2.61.31-1.17.14-2.37.28-3.61.43-1.23.15-2.74.32-4.51.54l-38.11-39.57c-.67-.82-1.47-1.85-2.39-3.09-.92-1.24-1.74-2.65-2.48-4.23-.73-1.58-1.2-3.23-1.4-4.93-.32-2.72.02-5.35,1.04-7.88,1.01-2.53,2.7-4.68,5.06-6.47,2.36-1.79,5.34-2.9,8.95-3.32,3.73-.44,7.16-.09,10.28,1.04,3.12,1.14,5.75,2.61,7.89,4.41l-3.84,6.62c-2.17-1.54-4.25-2.71-6.24-3.5-1.99-.79-3.9-1.08-5.74-.86-2.79.33-4.86,1.41-6.21,3.24-1.36,1.83-1.89,3.92-1.62,6.26.14,1.14.51,2.28,1.13,3.43.62,1.15,1.23,2.1,1.83,2.86.6.76.95,1.27,1.05,1.51l41.52,43.21ZM313.11,246.59l8.45-1-7.73,29.8-7.15-3.48,6.43-25.32Z"/>
        </g>
        <g>
          <path class="cls-1" d="M206.8,159.02l-17.12-13.69.79.1,1.8,14.67-2.65.31-2.42-20.37.14-.02,16.94,13.77-.62-.07-1.81-14.81,2.65-.31,2.42,20.39h-.11Z"/>
          <path class="cls-1" d="M214.04,150.43c.11.89.41,1.67.93,2.32.51.65,1.15,1.13,1.92,1.45.77.32,1.59.42,2.46.32.93-.11,1.74-.41,2.42-.9.68-.49,1.19-1.11,1.51-1.86.33-.75.44-1.57.33-2.47l-1.51-12.77,2.62-.31,1.53,12.85c.17,1.44,0,2.74-.54,3.89-.53,1.15-1.32,2.09-2.38,2.81-1.06.72-2.28,1.16-3.67,1.32-1.37.16-2.65.02-3.85-.43-1.2-.45-2.19-1.17-2.97-2.17-.78-1-1.26-2.22-1.43-3.66l-1.53-12.85,2.65-.31,1.52,12.77Z"/>
          <path class="cls-1" d="M230.13,135.57l12.85-1.52.3,2.54-10.2,1.21.71,6.02,9.1-1.08.3,2.57-9.1,1.08.72,6.1,10.58-1.26.3,2.54-13.23,1.57-2.35-19.77Z"/>
          <path class="cls-1" d="M258.6,135.77c-.72-.26-1.49-.48-2.32-.64-.83-.16-1.63-.19-2.4-.1-1.06.13-1.87.47-2.44,1.04-.57.57-.81,1.26-.71,2.08.07.62.34,1.12.8,1.5.46.38,1.03.69,1.72.92.68.23,1.41.44,2.17.63.63.15,1.26.34,1.9.56.64.23,1.22.53,1.76.91.54.38.98.87,1.34,1.48.36.6.59,1.37.7,2.3.13,1.06-.02,2.04-.44,2.96-.42.92-1.08,1.68-1.99,2.29-.91.61-2.04.99-3.38,1.15-.86.1-1.69.1-2.51,0-.81-.1-1.58-.27-2.29-.52-.71-.25-1.35-.51-1.92-.8l.93-2.22c.47.26,1.01.5,1.61.71s1.22.37,1.86.46c.64.09,1.25.1,1.83.03.64-.08,1.25-.26,1.82-.55.58-.29,1.04-.7,1.38-1.22.34-.52.47-1.17.38-1.96-.08-.66-.32-1.19-.73-1.6-.41-.41-.92-.75-1.53-1-.61-.25-1.27-.46-1.97-.64-.67-.14-1.33-.32-1.99-.54-.66-.22-1.29-.5-1.88-.84-.59-.35-1.08-.8-1.49-1.36-.41-.56-.66-1.27-.77-2.13-.12-1.04.02-1.98.43-2.81.41-.83,1.02-1.53,1.85-2.08.82-.55,1.79-.91,2.92-1.08,1.28-.15,2.42-.13,3.43.06,1.01.19,1.92.47,2.72.81l-.77,2.17Z"/>
          <path class="cls-1" d="M262.25,131.76l13.15-1.56.3,2.54-5.3.63,2.04,17.22-2.65.31-2.04-17.22-5.19.62-.3-2.54Z"/>
          <path class="cls-1" d="M284.86,129.08c1-.12,1.94-.1,2.82.07.88.16,1.66.47,2.35.91s1.26,1.03,1.71,1.75.73,1.58.84,2.56c.09.78.07,1.56-.07,2.34-.14.77-.43,1.5-.88,2.17-.45.67-1.07,1.25-1.88,1.72-.8.47-1.83.79-3.09.94l-2.93.35.86,7.27-2.65.31-2.35-19.77,5.25-.62ZM286.31,138.97c.78-.09,1.42-.29,1.91-.59s.86-.65,1.11-1.06c.25-.41.41-.83.49-1.26.08-.43.09-.85.05-1.25-.05-.4-.17-.8-.35-1.21s-.45-.77-.8-1.11c-.35-.34-.77-.6-1.29-.78-.51-.18-1.11-.23-1.8-.15l-3.06.36.88,7.38,2.87-.34ZM289.75,140.11l6.15,7.7-3.06.36-6.25-7.6,3.16-.46Z"/>
          <path class="cls-1" d="M298.01,147.56l6.17-21.61.16-.02,11.08,19.56-3.03.36-8.4-15.67,1.74-1.45-5.09,18.51-2.62.31ZM302.17,139.47l7.35-.87,1.15,2.19-9,1.07.49-2.39Z"/>
          <path class="cls-1" d="M330.52,123.66c1.99-.24,3.6-.02,4.83.66,1.24.68,1.95,1.86,2.16,3.56.12,1.06,0,2-.39,2.82-.38.82-.97,1.5-1.77,2.04-.8.54-1.76.91-2.9,1.12l-.55-1.35c1.33-.12,2.56-.03,3.67.29,1.11.31,2.02.82,2.73,1.53.71.71,1.13,1.6,1.26,2.68.12.98.04,1.85-.23,2.59-.27.74-.7,1.38-1.27,1.9-.58.52-1.24.93-1.99,1.23-.75.3-1.55.5-2.41.6l-5.88.7-2.35-19.77,5.08-.6ZM332.09,132.23c1.09-.13,1.85-.52,2.27-1.18.42-.66.58-1.42.48-2.27-.12-1.06-.54-1.79-1.23-2.18-.69-.4-1.58-.53-2.65-.41l-2.57.3.72,6.1,2.98-.35ZM333.23,140.89c.75-.09,1.41-.28,1.98-.57.58-.29,1.01-.69,1.31-1.2.3-.51.41-1.1.33-1.77-.09-.76-.37-1.34-.83-1.73-.46-.39-1.02-.64-1.68-.76-.66-.12-1.33-.13-2-.05l-2.93.35.72,6.1,3.09-.37Z"/>
          <path class="cls-1" d="M342.27,132.3c-.16-1.37-.06-2.69.32-3.97.38-1.28.97-2.45,1.79-3.5.82-1.05,1.8-1.91,2.95-2.58,1.15-.67,2.43-1.09,3.83-1.26,1.37-.16,2.69-.05,3.98.33,1.28.38,2.45.99,3.5,1.82,1.05.83,1.91,1.82,2.59,2.98.67,1.16,1.09,2.43,1.26,3.81.16,1.39.05,2.72-.33,4-.38,1.29-.99,2.44-1.81,3.47-.82,1.03-1.81,1.88-2.97,2.54-1.16.66-2.43,1.08-3.82,1.24-1.4.17-2.74.07-4.01-.3-1.27-.37-2.43-.96-3.47-1.77s-1.89-1.79-2.55-2.94c-.66-1.15-1.08-2.45-1.25-3.89ZM345.01,131.97c.12,1.06.43,2.01.91,2.87s1.1,1.59,1.87,2.2c.77.61,1.61,1.06,2.54,1.35.93.29,1.92.37,2.95.24,1.04-.12,1.98-.43,2.82-.93.84-.5,1.55-1.13,2.13-1.89.58-.76,1.01-1.62,1.29-2.58.27-.96.35-1.96.23-2.99-.13-1.06-.43-2.02-.92-2.88-.49-.87-1.11-1.61-1.86-2.23-.75-.62-1.6-1.08-2.55-1.36-.95-.28-1.93-.37-2.95-.25-1.04.12-1.99.44-2.84.95-.86.51-1.57,1.15-2.16,1.92-.58.77-1,1.64-1.26,2.6-.26.96-.32,1.96-.2,2.98Z"/>
          <path class="cls-1" d="M368.1,139.24l-2.35-19.77,5.39-.64c1.97-.23,3.67-.14,5.11.29,1.44.43,2.64,1.09,3.6,1.98.97.89,1.71,1.91,2.23,3.05s.86,2.31,1,3.51c.18,1.5.08,2.87-.3,4.11-.38,1.25-.97,2.34-1.77,3.29-.8.95-1.77,1.71-2.89,2.3-1.12.59-2.34.96-3.65,1.11l-6.37.76ZM370.45,136.38l3.2-.38c1.08-.13,2.05-.41,2.93-.85.88-.44,1.63-1.01,2.24-1.71.61-.7,1.05-1.53,1.33-2.47.28-.95.34-2,.21-3.17-.14-1.2-.47-2.24-.98-3.11-.51-.87-1.15-1.58-1.91-2.12-.77-.54-1.61-.91-2.52-1.13-.91-.22-1.84-.27-2.79-.16l-3.44.41,1.74,14.68Z"/>
          <path class="cls-1" d="M385.65,137.16l6.17-21.61.16-.02,11.08,19.56-3.04.36-8.4-15.67,1.74-1.45-5.09,18.51-2.62.31ZM389.82,129.07l7.35-.87,1.15,2.19-8.99,1.07.49-2.39Z"/>
        </g>
      </g>
    </g>
  </g>
</svg>