<?xml version="1.0" encoding="UTF-8"?>
<svg xmlns="http://www.w3.org/2000/svg" version="1.1" viewBox="0 0 186.9 25.7">
  <defs>
    <style>
      .cls-1 {
        fill: #8d704f;
      }
    </style>
  </defs>
  <!-- Generator: Adobe Illustrator 28.6.0, SVG Export Plug-In . SVG Version: 1.2.0 Build 709)  -->
  <g>
    <g id="logo-dark">
      <g>
        <path class="cls-1" d="M13.4,1.4l.7,3.9c-2.7,0-.3-3.4-7.6-3.4h-2.1v9.4c.7-1,2.3-1,4.1-1h3.7v1.9c-.9,0-1.6-1.3-3.7-1.3h-.7c-1.4,0-3.4.1-3.4,1.7v11h2.6c7.3,0,4.9-3.4,7.6-3.4l-.7,3.9H.4V1.4h13Z"/>
        <path class="cls-1" d="M18.3,1.4c1.9,0,2.7-.1,4.4-.1,6,0,10.3,3.5,10.3,11.7s-4.3,11.2-9.5,11.2-3.9-.2-5.6-.2h-1.9V1.4h2.2ZM23.5,23.6c3.5,0,5.3-4.5,5.3-10.8s-1.8-11-6.1-11-1.9,0-2.7,0v21.7c1.1,0,2.3.1,3.4.1Z"/>
        <path class="cls-1" d="M49.2.9l.7,3.9c-2.7,0-.4-3.3-6.5-3.4-3.9.1-5.5,5.8-5.5,11.4s4.1,10.8,7.3,10.8,1.3,0,1.9-.1v-11.1c-2.6.2-3.1,1.3-4,1.3v-1.9h8v11.8c-1.3,0-2.8.9-7.2.9-6.6,0-10.1-4.9-10.1-11.6S37.4,1,43.2.9h6Z"/>
        <path class="cls-1" d="M69.4,24h-4.3l-2.4-6.8c-.6-1.5-2-1.7-3.4-1.7h-3.1l-.2.6c-1.6,4.8.8,6,.7,7.9h-4.1L60.8,1.4h.6l8,22.6ZM58.4,15c1.7,0,3,0,3.8.8l-3-8.5-2.9,7.7h2Z"/>
        <path class="cls-1" d="M73,1.4c1.6,0,2.4,0,3,0,6.1,0,9.5,1,9.5,5.8s-1.6,5.8-4.7,6.5l5.9,10.4h-4.6l-5.6-10c-.9,0-1.7.2-1.7,1.4v5.8c0,1.7-.1,2.8-3.7,2.8h-.3V1.4h2.2ZM76.9,13.5c3,0,4.4-2,4.4-6.5s-.6-5.2-5.3-5.2-.8,0-1.2,0v12.3c.5-.6,1.5-.6,2.1-.6Z"/>
        <path class="cls-1" d="M101,14.6c-.5,0-1,0-1.5.3-.5.2-.9.5-1.3.8-.4.3-.7.7-.9,1.2s-.3.9-.3,1.5.2,1.3.6,1.8c.4.5.9.9,1.5,1.2.6.3,1.3.4,2,.4s1.3-.1,1.8-.3c.5-.2,1-.5,1.3-.8.4-.3.7-.7.8-1.1l1.7,1.5c-.5.9-1.2,1.6-2.2,2.2s-2.3.9-3.7.9-2.3-.3-3.3-.8-1.7-1.2-2.3-2.1c-.6-.9-.8-1.8-.8-2.9s.2-1.6.6-2.4.9-1.3,1.5-1.9c.6-.5,1.3-1,2.1-1.3.8-.3,1.6-.5,2.4-.5v2ZM110.9,24h-3l-9.3-12.3c-.2-.3-.4-.6-.6-.9s-.4-.8-.6-1.3-.2-.9-.2-1.4c0-.8.2-1.5.6-2.2.4-.7.9-1.2,1.6-1.6.7-.4,1.6-.6,2.6-.6s2,.2,2.8.6c.8.4,1.5.9,2.1,1.5l-1.3,1.7c-.6-.5-1.1-.9-1.6-1.2-.5-.3-1.1-.4-1.6-.4-.8,0-1.4.2-1.8.7s-.7,1-.7,1.7,0,.7.2,1c.1.3.3.6.4.9.1.2.2.4.2.5l10.2,13.5ZM107.8,12.6h2.4l-3.1,8.1-1.9-1.2,2.6-6.9Z"/>
        <path class="cls-1" d="M133.5.9l.7,3.9c-2.7,0-.4-3.3-6.5-3.4-3.9.1-5.5,5.8-5.5,11.4s4.1,10.8,7.3,10.8,1.3,0,1.9-.1v-11.1c-2.6.2-3.1,1.3-4,1.3v-1.9h8v11.8c-1.3,0-2.8.9-7.2.9-6.6,0-10.1-4.9-10.1-11.6s3.6-11.9,9.4-12h6Z"/>
        <path class="cls-1" d="M153.7,24h-4.3l-2.4-6.8c-.6-1.5-2-1.7-3.4-1.7h-3.1l-.2.6c-1.6,4.8.8,6,.7,7.9h-4.1l8.4-22.6h.6l8,22.6ZM142.7,15c1.7,0,3,0,3.8.8l-3-8.5-2.9,7.7h2Z"/>
        <path class="cls-1" d="M157.3,1.4c1.6,0,2.4,0,3,0,5.7,0,9.2,1.4,9.2,6.2s-1.5,4.3-4.5,4.8c4.3.4,6.5,1.9,6.5,5.8s-3.4,5.9-9.5,5.9-3.5,0-5.1,0h-1.7V1.4h2.2ZM161.2,12.2c3,0,4.4-1.5,4.4-5.1s-1.3-5.2-5.3-5.2-.8,0-1.2,0v11.2c.5-.9,1.5-.9,2.1-.9ZM162,23.6c4.7,0,5.3-2.4,5.3-5.2,0-4.4-2.6-5.7-4.4-5.7h-1.9c-.9,0-1.8.2-1.8,2.3v8.5c1.2,0,2.4,0,2.9,0Z"/>
        <path class="cls-1" d="M182.3,1.4h4.2l-5.7,11.6v11h-4v-9.6l-7.3-13.1h4.6l6.3,11.2,1.8-3.7c1.8-3.7.1-5.5.1-7.6Z"/>
      </g>
    </g>
  </g>
</svg>